PathFileType	3	(X/Y/Z)	E:\ViconData\BIOM9541 2025\Week 7\Wed1100\Hanif high squat 2-5 Squat 01.trc
DataRate	CameraRate	NumFrames	NumMarkers	Units	OrigDataRate	OrigDataStartFrame	OrigNumFrames
200.0	200.0	10	19	mm	200.0	168	1337	
Frame#	Time	C7			CLAV			RBAK			LASI			RASI			LPSI			RPSI			LTHI			LKNE			LTIB			LANK			LHEE			LTOE			RTHI			RKNE			RTIB			RANK			RHEE			RTOE			
		X1	Y1	Z1	X2	Y2	Z2	X3	Y3	Z3	X4	Y4	Z4	X5	Y5	Z5	X6	Y6	Z6	X7	Y7	Z7	X8	Y8	Z8	X9	Y9	Z9	X10	Y10	Z10	X11	Y11	Z11	X12	Y12	Z12	X13	Y13	Z13	X14	Y14	Z14	X15	Y15	Z15	X16	Y16	Z16	X17	Y17	Z17	X18	Y18	Z18	X19	Y19	Z19	
168	0.835	286.30417	1049.8568	-1209.4419	156.00854	946.05994	-1201.8317	319.3765	976.17181	-1361.2101	283.04791	606.62781	-1090.729	271.6041	629.8937	-1349.3596	449.9786	673.2306	-1175.3617	448.7748	672.3463	-1249.8425	179.01378	463.51392	-933.19531	97.128754	361.21848	-893.64716	210.24324	185.10342	-914.4071	295.71469	69.70285	-953.76099	321.62817	54.603451	-1022.0217	161.35645	38.751411	-930.28998	297.53543	556.1908	-1436.1191	101.06847	348.40753	-1524.3108	138.61267	273.61398	-1524.9435	288.9136	71.180031	-1448.4905	319.11551	52.848907	-1379.057	162.35899	40.525845	-1475.3625	
169	0.84	286.08557	1047.778	-1209.5472	155.24641	944.35034	-1201.5756	319.08215	974.05402	-1361.2845	283.14301	604.75824	-1090.8433	271.6325	627.9797	-1349.4855	450.0564	671.1383	-1175.5446	448.915	670.4709	-1249.8959	178.63014	462.80026	-933.26703	96.445007	360.82379	-893.55548	209.86499	184.94366	-914.41583	298.46909	67.411217	-963.99768	321.76822	54.738049	-1022.2019	161.33128	38.687805	-930.41101	297.64014	554.72339	-1436.1492	100.47717	347.81946	-1524.4865	138.08084	273.09235	-1525.0742	288.87354	71.093559	-1448.454	319.26624	52.805676	-1379.4631	162.34778	40.443996	-1475.3334	
170	0.845	285.84348	1045.7898	-1209.6237	155.64368	941.77533	-1202.0127	318.8107	971.99994	-1361.4161	283.17761	602.86639	-1090.8389	271.7423	626.0601	-1349.5184	450.1555	669.1436	-1175.6818	448.9748	668.4686	-1249.9343	178.24379	461.99304	-933.4433	95.797783	360.41562	-893.52222	209.49628	184.69177	-914.4787	298.3819	67.872726	-963.65509	321.70456	54.701534	-1022.1888	161.3284	38.647434	-930.48828	297.72052	553.31799	-1436.1331	99.87561	347.35205	-1524.6891	137.54453	272.7345	-1525.2189	288.79669	71.09964	-1448.429	319.3197	52.785294	-1379.5856	162.09106	40.620537	-1475.4214	
171	0.85	285.61868	1043.8375	-1209.7327	154.85159	940.23395	-1201.5751	318.55707	970.03021	-1361.5421	283.12387	600.96564	-1090.6777	271.8008	624.2536	-1349.5155	450.1743	667.2649	-1175.4459	448.9814	666.414	-1249.9139	177.81032	461.59109	-932.48083	95.176552	359.91437	-893.57996	209.11615	184.52318	-914.4173	298.29437	67.945389	-963.62115	321.75491	54.85376	-1022.2497	161.2505	38.675125	-930.46912	297.77686	551.9632	-1436.0911	99.237793	346.92828	-1524.8768	137.02232	272.42157	-1525.3567	288.71854	71.146439	-1448.3925	319.25977	52.829277	-1379.6082	162.06122	40.649101	-1475.4407	
172	0.855	285.38406	1041.9159	-1209.7843	155.33911	937.80444	-1202.1349	318.38474	968.13696	-1361.6102	283.18753	599.16534	-1090.8318	271.9066	622.5532	-1349.6262	450.1761	665.465	-1175.1785	448.9611	664.3307	-1249.8922	177.42911	460.54636	-933.14502	94.452278	359.41455	-893.60925	208.79082	184.3497	-914.44922	298.23792	67.940956	-963.73529	321.56094	54.804169	-1022.1567	161.2234	38.679043	-930.49243	297.85745	550.711	-1436.1454	98.623474	346.53613	-1525.0098	136.50533	272.09201	-1525.4238	288.66037	71.237976	-1448.3682	319.34723	52.903439	-1379.715	162.04088	40.501953	-1475.2477	
173	0.86	285.1799	1040.054	-1209.9376	154.56522	936.38629	-1201.8167	318.22125	966.28979	-1361.7601	283.13788	597.45312	-1090.7698	271.9914	620.8446	-1349.7494	450.1827	663.6883	-1175.1461	448.9672	662.3229	-1249.8569	176.89285	459.56693	-933.80286	93.755363	358.99463	-893.62408	208.44629	184.2515	-914.43127	298.2002	67.846855	-963.82355	321.49933	54.84016	-1022.1486	161.21947	38.702938	-930.60779	297.87134	549.38202	-1436.1696	98.04969	346.06958	-1525.1444	135.96838	271.75473	-1525.5327	288.61569	71.239876	-1448.3331	319.40656	52.919365	-1379.8699	162.0089	40.470497	-1475.2451	
174	0.865	285.01611	1038.2853	-1210.0597	155.08009	933.96002	-1202.2566	318.04489	964.47009	-1361.8651	283.0896	595.78442	-1090.7318	272.1009	619.1124	-1349.7189	450.2302	661.854	-1175.2625	449.0969	660.6933	-1249.8899	176.4222	458.9325	-933.94452	93.044823	358.64044	-893.65216	208.0975	184.09998	-914.48615	298.16626	67.874046	-963.87787	321.65179	54.94133	-1022.2421	161.19479	38.675076	-930.69855	297.92972	548.03613	-1436.0476	97.446678	345.51764	-1525.2246	135.45514	271.40118	-1525.6056	288.58975	71.168617	-1448.3091	319.5943	52.936459	-1380.2024	162.00006	40.38113	-1475.2012	
175	0.87	284.86642	1036.6031	-1210.176	154.93092	932.14148	-1202.2493	317.82654	962.65961	-1361.9445	283.01758	594.17993	-1090.7717	272.1256	617.5064	-1349.7993	450.3027	660.0532	-1175.3624	449.1605	659.1406	-1249.8273	175.90411	458.26352	-934.09058	92.367928	358.2269	-893.73608	207.74008	183.95613	-914.5307	298.26071	68.240486	-963.79218	321.70081	54.942806	-1022.325	161.17006	38.652573	-930.82819	297.88113	546.83612	-1436.0797	96.849007	345.06293	-1525.337	134.93338	270.97137	-1525.6398	288.50974	71.110085	-1448.2894	319.41779	52.887482	-1380.1736	161.94057	40.331474	-1475.1709	
176	0.875	284.70691	1034.9784	-1210.2996	154.77107	930.49847	-1202.2766	317.6413	960.98553	-1362.071	282.99039	592.62152	-1090.9188	272.1004	616.0495	-1349.8445	450.2811	658.3443	-1175.3394	449.2394	657.5591	-1249.8311	175.37323	457.50323	-934.2782	91.690468	357.79422	-893.82666	207.37808	183.77858	-914.6532	295.6806	69.110786	-955.63434	320.79056	54.140522	-1021.9165	161.1169	38.59716	-930.79443	297.76541	545.67078	-1436.0417	96.201202	344.58975	-1525.343	134.42157	270.67361	-1525.7053	288.41092	71.143501	-1448.2378	319.10138	52.726559	-1379.9514	162.12466	40.245564	-1475.1753	
177	0.88	284.53351	1033.4397	-1210.3667	154.67728	928.87415	-1202.3197	317.51825	959.46869	-1362.1715	282.89038	591.15045	-1090.9152	272.0366	614.7404	-1349.9514	450.2677	656.7411	-1175.1971	449.2028	655.8336	-1249.7714	174.85538	456.93271	-934.40656	90.989799	357.34979	-893.89655	207.02516	183.65309	-914.76715	295.65109	69.137535	-955.58167	320.76114	54.278431	-1022.0161	161.09201	38.585388	-930.78326	297.65799	544.55634	-1436.0383	95.59211	344.28873	-1525.4406	133.83691	270.35501	-1525.7394	288.32495	71.212311	-1448.2072	318.95377	52.737968	-1379.7924	162.07669	40.258144	-1475.1541	
